<mxfile host="app.diagrams.net" modified="2024-01-02T18:34:11.242Z" agent="Mozilla/5.0 (Windows NT 10.0; Win64; x64) AppleWebKit/537.36 (KHTML, like Gecko) Chrome/120.0.0.0 Safari/537.36" etag="6xHWSMx6EAUvpGr9SU3A" version="22.1.16" type="device">
  <diagram name="Page-1" id="wK68PvIPrZr7_4aeDGbZ">
    <mxGraphModel dx="1525" dy="752" grid="1" gridSize="10" guides="1" tooltips="1" connect="1" arrows="1" fold="1" page="1" pageScale="1" pageWidth="3300" pageHeight="4681" math="0" shadow="0">
      <root>
        <mxCell id="0" />
        <mxCell id="1" parent="0" />
        <mxCell id="sfHX7WNjNzunwl_Qtnw9-26" value="&lt;font style=&quot;font-size: 30px;&quot;&gt;Botanical Institute Management System&lt;/font&gt;" style="ellipse;whiteSpace=wrap;html=1;aspect=fixed;" parent="1" vertex="1">
          <mxGeometry x="1220" y="812.5" width="630" height="630" as="geometry" />
        </mxCell>
        <mxCell id="sfHX7WNjNzunwl_Qtnw9-27" value="&lt;font style=&quot;font-size: 40px;&quot;&gt;User&lt;/font&gt;" style="rounded=0;whiteSpace=wrap;html=1;" parent="1" vertex="1">
          <mxGeometry x="320" y="830" width="310" height="575" as="geometry" />
        </mxCell>
        <mxCell id="oULqDZiRnJvPcXNqzjtD-4" value="" style="endArrow=classic;html=1;rounded=1;entryX=1;entryY=0;entryDx=0;entryDy=0;exitX=0.234;exitY=0.078;exitDx=0;exitDy=0;exitPerimeter=0;curved=0;" parent="1" source="sfHX7WNjNzunwl_Qtnw9-26" target="sfHX7WNjNzunwl_Qtnw9-27" edge="1">
          <mxGeometry width="50" height="50" relative="1" as="geometry">
            <mxPoint x="1230" y="810" as="sourcePoint" />
            <mxPoint x="1280" y="760" as="targetPoint" />
          </mxGeometry>
        </mxCell>
        <mxCell id="oULqDZiRnJvPcXNqzjtD-25" value="&lt;span style=&quot;font-size: 20px;&quot;&gt;Registration Confirmation&lt;/span&gt;" style="edgeLabel;html=1;align=center;verticalAlign=middle;resizable=0;points=[];" parent="oULqDZiRnJvPcXNqzjtD-4" connectable="0" vertex="1">
          <mxGeometry x="0.1135" y="1" relative="1" as="geometry">
            <mxPoint x="1" as="offset" />
          </mxGeometry>
        </mxCell>
        <mxCell id="oULqDZiRnJvPcXNqzjtD-5" value="" style="endArrow=classic;html=1;rounded=0;entryX=0.998;entryY=0.047;entryDx=0;entryDy=0;entryPerimeter=0;exitX=0;exitY=0;exitDx=0;exitDy=0;" parent="1" source="sfHX7WNjNzunwl_Qtnw9-26" target="sfHX7WNjNzunwl_Qtnw9-27" edge="1">
          <mxGeometry width="50" height="50" relative="1" as="geometry">
            <mxPoint x="1010" y="980" as="sourcePoint" />
            <mxPoint x="1060" y="930" as="targetPoint" />
          </mxGeometry>
        </mxCell>
        <mxCell id="oULqDZiRnJvPcXNqzjtD-26" value="&lt;span style=&quot;font-size: 20px;&quot;&gt;Program Joining Confirmation&lt;/span&gt;" style="edgeLabel;html=1;align=center;verticalAlign=middle;resizable=0;points=[];" parent="oULqDZiRnJvPcXNqzjtD-5" connectable="0" vertex="1">
          <mxGeometry x="0.4189" y="1" relative="1" as="geometry">
            <mxPoint x="72" as="offset" />
          </mxGeometry>
        </mxCell>
        <mxCell id="oULqDZiRnJvPcXNqzjtD-6" value="" style="endArrow=classic;html=1;rounded=0;entryX=1.005;entryY=0.101;entryDx=0;entryDy=0;entryPerimeter=0;exitX=0.095;exitY=0.193;exitDx=0;exitDy=0;exitPerimeter=0;" parent="1" source="sfHX7WNjNzunwl_Qtnw9-26" target="sfHX7WNjNzunwl_Qtnw9-27" edge="1">
          <mxGeometry width="50" height="50" relative="1" as="geometry">
            <mxPoint x="960" y="1050" as="sourcePoint" />
            <mxPoint x="1010" y="1000" as="targetPoint" />
          </mxGeometry>
        </mxCell>
        <mxCell id="oULqDZiRnJvPcXNqzjtD-27" value="&lt;span style=&quot;font-size: 20px;&quot;&gt;Plant Purchase Confirmation&lt;/span&gt;" style="edgeLabel;html=1;align=center;verticalAlign=middle;resizable=0;points=[];" parent="oULqDZiRnJvPcXNqzjtD-6" connectable="0" vertex="1">
          <mxGeometry x="0.4739" y="1" relative="1" as="geometry">
            <mxPoint x="90" as="offset" />
          </mxGeometry>
        </mxCell>
        <mxCell id="oULqDZiRnJvPcXNqzjtD-7" value="" style="endArrow=classic;html=1;rounded=0;entryX=1.007;entryY=0.169;entryDx=0;entryDy=0;entryPerimeter=0;exitX=0.071;exitY=0.242;exitDx=0;exitDy=0;exitPerimeter=0;" parent="1" source="sfHX7WNjNzunwl_Qtnw9-26" target="sfHX7WNjNzunwl_Qtnw9-27" edge="1">
          <mxGeometry width="50" height="50" relative="1" as="geometry">
            <mxPoint x="1030" y="1050" as="sourcePoint" />
            <mxPoint x="1080" y="1000" as="targetPoint" />
          </mxGeometry>
        </mxCell>
        <mxCell id="oULqDZiRnJvPcXNqzjtD-28" value="&lt;span style=&quot;font-size: 20px;&quot;&gt;Payment Confirmation&lt;/span&gt;" style="edgeLabel;html=1;align=center;verticalAlign=middle;resizable=0;points=[];" parent="oULqDZiRnJvPcXNqzjtD-7" connectable="0" vertex="1">
          <mxGeometry x="0.355" relative="1" as="geometry">
            <mxPoint x="50" as="offset" />
          </mxGeometry>
        </mxCell>
        <mxCell id="oULqDZiRnJvPcXNqzjtD-8" value="" style="endArrow=classic;html=1;rounded=0;entryX=1.005;entryY=0.226;entryDx=0;entryDy=0;entryPerimeter=0;exitX=0.045;exitY=0.302;exitDx=0;exitDy=0;exitPerimeter=0;" parent="1" source="sfHX7WNjNzunwl_Qtnw9-26" target="sfHX7WNjNzunwl_Qtnw9-27" edge="1">
          <mxGeometry width="50" height="50" relative="1" as="geometry">
            <mxPoint x="1010" y="1110" as="sourcePoint" />
            <mxPoint x="1060" y="1060" as="targetPoint" />
          </mxGeometry>
        </mxCell>
        <mxCell id="oULqDZiRnJvPcXNqzjtD-29" value="&lt;span style=&quot;font-size: 20px;&quot;&gt;Recommendation Response&lt;/span&gt;" style="edgeLabel;html=1;align=center;verticalAlign=middle;resizable=0;points=[];" parent="oULqDZiRnJvPcXNqzjtD-8" connectable="0" vertex="1">
          <mxGeometry x="0.4878" relative="1" as="geometry">
            <mxPoint x="82" as="offset" />
          </mxGeometry>
        </mxCell>
        <mxCell id="oULqDZiRnJvPcXNqzjtD-9" value="" style="endArrow=classic;html=1;rounded=0;entryX=1;entryY=0.306;entryDx=0;entryDy=0;entryPerimeter=0;exitX=0.016;exitY=0.369;exitDx=0;exitDy=0;exitPerimeter=0;" parent="1" source="sfHX7WNjNzunwl_Qtnw9-26" target="sfHX7WNjNzunwl_Qtnw9-27" edge="1">
          <mxGeometry width="50" height="50" relative="1" as="geometry">
            <mxPoint x="1010" y="1110" as="sourcePoint" />
            <mxPoint x="1060" y="1060" as="targetPoint" />
          </mxGeometry>
        </mxCell>
        <mxCell id="oULqDZiRnJvPcXNqzjtD-30" value="&lt;font style=&quot;font-size: 20px;&quot;&gt;Certification Exam Detail&lt;/font&gt;" style="edgeLabel;html=1;align=center;verticalAlign=middle;resizable=0;points=[];" parent="oULqDZiRnJvPcXNqzjtD-9" connectable="0" vertex="1">
          <mxGeometry x="0.4515" y="-1" relative="1" as="geometry">
            <mxPoint x="72" as="offset" />
          </mxGeometry>
        </mxCell>
        <mxCell id="oULqDZiRnJvPcXNqzjtD-10" value="" style="endArrow=classic;html=1;rounded=0;entryX=1.01;entryY=0.379;entryDx=0;entryDy=0;entryPerimeter=0;exitX=0.003;exitY=0.431;exitDx=0;exitDy=0;exitPerimeter=0;" parent="1" source="sfHX7WNjNzunwl_Qtnw9-26" target="sfHX7WNjNzunwl_Qtnw9-27" edge="1">
          <mxGeometry width="50" height="50" relative="1" as="geometry">
            <mxPoint x="1010" y="1110" as="sourcePoint" />
            <mxPoint x="1060" y="1060" as="targetPoint" />
          </mxGeometry>
        </mxCell>
        <mxCell id="oULqDZiRnJvPcXNqzjtD-31" value="&lt;span style=&quot;font-size: 20px;&quot;&gt;Forum Update Notification&lt;/span&gt;" style="edgeLabel;html=1;align=center;verticalAlign=middle;resizable=0;points=[];" parent="oULqDZiRnJvPcXNqzjtD-10" connectable="0" vertex="1">
          <mxGeometry x="0.4074" y="3" relative="1" as="geometry">
            <mxPoint x="71" as="offset" />
          </mxGeometry>
        </mxCell>
        <mxCell id="oULqDZiRnJvPcXNqzjtD-11" value="" style="endArrow=classic;html=1;rounded=0;exitX=1.007;exitY=0.525;exitDx=0;exitDy=0;exitPerimeter=0;entryX=-0.006;entryY=0.522;entryDx=0;entryDy=0;entryPerimeter=0;" parent="1" source="sfHX7WNjNzunwl_Qtnw9-27" target="sfHX7WNjNzunwl_Qtnw9-26" edge="1">
          <mxGeometry width="50" height="50" relative="1" as="geometry">
            <mxPoint x="940" y="1190" as="sourcePoint" />
            <mxPoint x="990" y="1140" as="targetPoint" />
          </mxGeometry>
        </mxCell>
        <mxCell id="oULqDZiRnJvPcXNqzjtD-18" value="&lt;font style=&quot;font-size: 20px;&quot;&gt;User Registration Details&lt;/font&gt;" style="edgeLabel;html=1;align=center;verticalAlign=middle;resizable=0;points=[];" parent="oULqDZiRnJvPcXNqzjtD-11" connectable="0" vertex="1">
          <mxGeometry x="-0.6769" y="-2" relative="1" as="geometry">
            <mxPoint x="84" y="-3" as="offset" />
          </mxGeometry>
        </mxCell>
        <mxCell id="oULqDZiRnJvPcXNqzjtD-12" value="" style="endArrow=classic;html=1;rounded=0;exitX=0.998;exitY=0.601;exitDx=0;exitDy=0;exitPerimeter=0;entryX=0.003;entryY=0.592;entryDx=0;entryDy=0;entryPerimeter=0;" parent="1" source="sfHX7WNjNzunwl_Qtnw9-27" target="sfHX7WNjNzunwl_Qtnw9-26" edge="1">
          <mxGeometry width="50" height="50" relative="1" as="geometry">
            <mxPoint x="910" y="1200" as="sourcePoint" />
            <mxPoint x="960" y="1150" as="targetPoint" />
          </mxGeometry>
        </mxCell>
        <mxCell id="oULqDZiRnJvPcXNqzjtD-19" value="&lt;font style=&quot;font-size: 20px;&quot;&gt;Program Joining Request&lt;/font&gt;" style="edgeLabel;html=1;align=center;verticalAlign=middle;resizable=0;points=[];" parent="oULqDZiRnJvPcXNqzjtD-12" connectable="0" vertex="1">
          <mxGeometry x="-0.6704" y="-1" relative="1" as="geometry">
            <mxPoint x="107" y="-5" as="offset" />
          </mxGeometry>
        </mxCell>
        <mxCell id="oULqDZiRnJvPcXNqzjtD-13" value="" style="endArrow=classic;html=1;rounded=0;exitX=1.003;exitY=0.683;exitDx=0;exitDy=0;exitPerimeter=0;entryX=0.016;entryY=0.647;entryDx=0;entryDy=0;entryPerimeter=0;" parent="1" source="sfHX7WNjNzunwl_Qtnw9-27" target="sfHX7WNjNzunwl_Qtnw9-26" edge="1">
          <mxGeometry width="50" height="50" relative="1" as="geometry">
            <mxPoint x="940" y="1250" as="sourcePoint" />
            <mxPoint x="990" y="1200" as="targetPoint" />
          </mxGeometry>
        </mxCell>
        <mxCell id="oULqDZiRnJvPcXNqzjtD-20" value="&lt;font style=&quot;font-size: 20px;&quot;&gt;&amp;nbsp;Plant Purchase Request&lt;/font&gt;" style="edgeLabel;html=1;align=center;verticalAlign=middle;resizable=0;points=[];" parent="oULqDZiRnJvPcXNqzjtD-13" connectable="0" vertex="1">
          <mxGeometry x="-0.6387" y="-3" relative="1" as="geometry">
            <mxPoint x="102" y="-10" as="offset" />
          </mxGeometry>
        </mxCell>
        <mxCell id="oULqDZiRnJvPcXNqzjtD-14" value="" style="endArrow=classic;html=1;rounded=0;exitX=1.018;exitY=0.767;exitDx=0;exitDy=0;exitPerimeter=0;entryX=0.037;entryY=0.694;entryDx=0;entryDy=0;entryPerimeter=0;" parent="1" source="sfHX7WNjNzunwl_Qtnw9-27" target="sfHX7WNjNzunwl_Qtnw9-26" edge="1">
          <mxGeometry width="50" height="50" relative="1" as="geometry">
            <mxPoint x="940" y="1290" as="sourcePoint" />
            <mxPoint x="990" y="1240" as="targetPoint" />
          </mxGeometry>
        </mxCell>
        <mxCell id="oULqDZiRnJvPcXNqzjtD-21" value="&lt;font style=&quot;font-size: 20px;&quot;&gt;Payment Information&lt;/font&gt;" style="edgeLabel;html=1;align=center;verticalAlign=middle;resizable=0;points=[];" parent="oULqDZiRnJvPcXNqzjtD-14" connectable="0" vertex="1">
          <mxGeometry x="-0.5284" y="3" relative="1" as="geometry">
            <mxPoint x="92" y="-7" as="offset" />
          </mxGeometry>
        </mxCell>
        <mxCell id="oULqDZiRnJvPcXNqzjtD-15" value="" style="endArrow=classic;html=1;rounded=0;exitX=1.001;exitY=0.844;exitDx=0;exitDy=0;exitPerimeter=0;entryX=0.065;entryY=0.753;entryDx=0;entryDy=0;entryPerimeter=0;" parent="1" source="sfHX7WNjNzunwl_Qtnw9-27" target="sfHX7WNjNzunwl_Qtnw9-26" edge="1">
          <mxGeometry width="50" height="50" relative="1" as="geometry">
            <mxPoint x="890" y="1340" as="sourcePoint" />
            <mxPoint x="940" y="1290" as="targetPoint" />
          </mxGeometry>
        </mxCell>
        <mxCell id="oULqDZiRnJvPcXNqzjtD-22" value="&lt;font style=&quot;font-size: 20px;&quot;&gt;Recommendation Request&lt;/font&gt;" style="edgeLabel;html=1;align=center;verticalAlign=middle;resizable=0;points=[];" parent="oULqDZiRnJvPcXNqzjtD-15" connectable="0" vertex="1">
          <mxGeometry x="-0.4368" y="-3" relative="1" as="geometry">
            <mxPoint x="93" y="-13" as="offset" />
          </mxGeometry>
        </mxCell>
        <mxCell id="oULqDZiRnJvPcXNqzjtD-16" value="" style="endArrow=classic;html=1;rounded=0;exitX=1.004;exitY=0.932;exitDx=0;exitDy=0;exitPerimeter=0;entryX=0.114;entryY=0.824;entryDx=0;entryDy=0;entryPerimeter=0;" parent="1" source="sfHX7WNjNzunwl_Qtnw9-27" target="sfHX7WNjNzunwl_Qtnw9-26" edge="1">
          <mxGeometry width="50" height="50" relative="1" as="geometry">
            <mxPoint x="900" y="1370" as="sourcePoint" />
            <mxPoint x="950" y="1320" as="targetPoint" />
          </mxGeometry>
        </mxCell>
        <mxCell id="oULqDZiRnJvPcXNqzjtD-23" value="&lt;font style=&quot;font-size: 20px;&quot;&gt;Certification Exam Request&lt;/font&gt;" style="edgeLabel;html=1;align=center;verticalAlign=middle;resizable=0;points=[];" parent="oULqDZiRnJvPcXNqzjtD-16" connectable="0" vertex="1">
          <mxGeometry x="-0.4533" y="-3" relative="1" as="geometry">
            <mxPoint x="106" y="-10" as="offset" />
          </mxGeometry>
        </mxCell>
        <mxCell id="oULqDZiRnJvPcXNqzjtD-17" value="" style="endArrow=classic;html=1;rounded=0;exitX=1;exitY=1;exitDx=0;exitDy=0;entryX=0.159;entryY=0.881;entryDx=0;entryDy=0;entryPerimeter=0;" parent="1" source="sfHX7WNjNzunwl_Qtnw9-27" target="sfHX7WNjNzunwl_Qtnw9-26" edge="1">
          <mxGeometry width="50" height="50" relative="1" as="geometry">
            <mxPoint x="960" y="1430" as="sourcePoint" />
            <mxPoint x="1010" y="1380" as="targetPoint" />
          </mxGeometry>
        </mxCell>
        <mxCell id="oULqDZiRnJvPcXNqzjtD-24" value="&lt;font style=&quot;font-size: 20px;&quot;&gt;Forum&amp;nbsp; Interaction&lt;/font&gt;" style="edgeLabel;html=1;align=center;verticalAlign=middle;resizable=0;points=[];" parent="oULqDZiRnJvPcXNqzjtD-17" connectable="0" vertex="1">
          <mxGeometry x="-0.4467" y="-4" relative="1" as="geometry">
            <mxPoint x="88" y="-9" as="offset" />
          </mxGeometry>
        </mxCell>
        <mxCell id="oULqDZiRnJvPcXNqzjtD-32" value="&lt;span style=&quot;font-size: 40px;&quot;&gt;Expert&lt;/span&gt;" style="rounded=0;whiteSpace=wrap;html=1;" parent="1" vertex="1">
          <mxGeometry x="2190" y="830" width="490" height="555" as="geometry" />
        </mxCell>
        <mxCell id="oULqDZiRnJvPcXNqzjtD-33" value="" style="endArrow=classic;html=1;rounded=0;exitX=0.813;exitY=0.098;exitDx=0;exitDy=0;exitPerimeter=0;entryX=-0.004;entryY=0.101;entryDx=0;entryDy=0;entryPerimeter=0;" parent="1" source="sfHX7WNjNzunwl_Qtnw9-26" target="oULqDZiRnJvPcXNqzjtD-32" edge="1">
          <mxGeometry width="50" height="50" relative="1" as="geometry">
            <mxPoint x="1700" y="830" as="sourcePoint" />
            <mxPoint x="1750" y="780" as="targetPoint" />
          </mxGeometry>
        </mxCell>
        <mxCell id="oULqDZiRnJvPcXNqzjtD-43" value="&lt;span style=&quot;font-size: 20px;&quot;&gt;Recommendation Request&lt;/span&gt;" style="edgeLabel;html=1;align=center;verticalAlign=middle;resizable=0;points=[];" parent="oULqDZiRnJvPcXNqzjtD-33" connectable="0" vertex="1">
          <mxGeometry x="-0.3831" y="1" relative="1" as="geometry">
            <mxPoint x="48" as="offset" />
          </mxGeometry>
        </mxCell>
        <mxCell id="oULqDZiRnJvPcXNqzjtD-34" value="" style="endArrow=classic;html=1;rounded=0;exitX=0.897;exitY=0.2;exitDx=0;exitDy=0;exitPerimeter=0;entryX=-0.004;entryY=0.2;entryDx=0;entryDy=0;entryPerimeter=0;" parent="1" source="sfHX7WNjNzunwl_Qtnw9-26" target="oULqDZiRnJvPcXNqzjtD-32" edge="1">
          <mxGeometry width="50" height="50" relative="1" as="geometry">
            <mxPoint x="1840" y="940" as="sourcePoint" />
            <mxPoint x="1890" y="890" as="targetPoint" />
          </mxGeometry>
        </mxCell>
        <mxCell id="oULqDZiRnJvPcXNqzjtD-44" value="&lt;span style=&quot;font-size: 20px;&quot;&gt;User Query&lt;/span&gt;" style="edgeLabel;html=1;align=center;verticalAlign=middle;resizable=0;points=[];" parent="oULqDZiRnJvPcXNqzjtD-34" connectable="0" vertex="1">
          <mxGeometry x="-0.4026" y="-3" relative="1" as="geometry">
            <mxPoint x="-1" as="offset" />
          </mxGeometry>
        </mxCell>
        <mxCell id="oULqDZiRnJvPcXNqzjtD-37" value="" style="endArrow=classic;html=1;rounded=0;entryX=1;entryY=0.5;entryDx=0;entryDy=0;exitX=-0.01;exitY=0.581;exitDx=0;exitDy=0;exitPerimeter=0;" parent="1" source="oULqDZiRnJvPcXNqzjtD-32" target="sfHX7WNjNzunwl_Qtnw9-26" edge="1">
          <mxGeometry width="50" height="50" relative="1" as="geometry">
            <mxPoint x="1990" y="1190" as="sourcePoint" />
            <mxPoint x="2040" y="1140" as="targetPoint" />
          </mxGeometry>
        </mxCell>
        <mxCell id="oULqDZiRnJvPcXNqzjtD-49" value="&lt;span style=&quot;font-size: 20px;&quot;&gt;Recommendation Response&lt;/span&gt;" style="edgeLabel;html=1;align=center;verticalAlign=middle;resizable=0;points=[];" parent="oULqDZiRnJvPcXNqzjtD-37" connectable="0" vertex="1">
          <mxGeometry x="0.3808" y="5" relative="1" as="geometry">
            <mxPoint x="69" as="offset" />
          </mxGeometry>
        </mxCell>
        <mxCell id="oULqDZiRnJvPcXNqzjtD-38" value="" style="endArrow=classic;html=1;rounded=0;entryX=0.998;entryY=0.592;entryDx=0;entryDy=0;entryPerimeter=0;exitX=0.001;exitY=0.687;exitDx=0;exitDy=0;exitPerimeter=0;" parent="1" source="oULqDZiRnJvPcXNqzjtD-32" target="sfHX7WNjNzunwl_Qtnw9-26" edge="1">
          <mxGeometry width="50" height="50" relative="1" as="geometry">
            <mxPoint x="1940" y="1270" as="sourcePoint" />
            <mxPoint x="1990" y="1220" as="targetPoint" />
          </mxGeometry>
        </mxCell>
        <mxCell id="oULqDZiRnJvPcXNqzjtD-50" value="&lt;span style=&quot;font-size: 20px;&quot;&gt;Query Response&lt;/span&gt;" style="edgeLabel;html=1;align=center;verticalAlign=middle;resizable=0;points=[];" parent="oULqDZiRnJvPcXNqzjtD-38" connectable="0" vertex="1">
          <mxGeometry x="0.4337" y="2" relative="1" as="geometry">
            <mxPoint x="56" as="offset" />
          </mxGeometry>
        </mxCell>
        <mxCell id="oULqDZiRnJvPcXNqzjtD-40" value="" style="endArrow=classic;html=1;rounded=0;entryX=0.969;entryY=0.699;entryDx=0;entryDy=0;entryPerimeter=0;exitX=0.001;exitY=0.815;exitDx=0;exitDy=0;exitPerimeter=0;" parent="1" source="oULqDZiRnJvPcXNqzjtD-32" target="sfHX7WNjNzunwl_Qtnw9-26" edge="1">
          <mxGeometry width="50" height="50" relative="1" as="geometry">
            <mxPoint x="1900" y="1440" as="sourcePoint" />
            <mxPoint x="1950" y="1390" as="targetPoint" />
          </mxGeometry>
        </mxCell>
        <mxCell id="oULqDZiRnJvPcXNqzjtD-51" value="&lt;span style=&quot;font-size: 20px;&quot;&gt;Notification Acknowledgement&lt;/span&gt;" style="edgeLabel;html=1;align=center;verticalAlign=middle;resizable=0;points=[];" parent="oULqDZiRnJvPcXNqzjtD-40" connectable="0" vertex="1">
          <mxGeometry x="0.3661" y="3" relative="1" as="geometry">
            <mxPoint x="86" as="offset" />
          </mxGeometry>
        </mxCell>
        <mxCell id="oULqDZiRnJvPcXNqzjtD-53" value="&lt;span style=&quot;font-size: 40px;&quot;&gt;Admin&lt;/span&gt;" style="rounded=0;whiteSpace=wrap;html=1;" parent="1" vertex="1">
          <mxGeometry x="1040" y="1790" width="1040" height="460" as="geometry" />
        </mxCell>
        <mxCell id="oULqDZiRnJvPcXNqzjtD-58" value="" style="endArrow=classic;html=1;rounded=0;exitX=0.186;exitY=0.902;exitDx=0;exitDy=0;exitPerimeter=0;entryX=0.02;entryY=0.001;entryDx=0;entryDy=0;entryPerimeter=0;" parent="1" source="sfHX7WNjNzunwl_Qtnw9-26" target="oULqDZiRnJvPcXNqzjtD-53" edge="1">
          <mxGeometry width="50" height="50" relative="1" as="geometry">
            <mxPoint x="1280" y="1550" as="sourcePoint" />
            <mxPoint x="1330" y="1500" as="targetPoint" />
          </mxGeometry>
        </mxCell>
        <mxCell id="oULqDZiRnJvPcXNqzjtD-71" value="&lt;span style=&quot;font-size: 20px;&quot;&gt;Report&amp;nbsp;&amp;nbsp;&lt;br&gt;preparation&lt;br&gt;&lt;/span&gt;" style="edgeLabel;html=1;align=center;verticalAlign=middle;resizable=0;points=[];" parent="oULqDZiRnJvPcXNqzjtD-58" connectable="0" vertex="1">
          <mxGeometry x="0.6029" y="2" relative="1" as="geometry">
            <mxPoint x="-1" y="1" as="offset" />
          </mxGeometry>
        </mxCell>
        <mxCell id="oULqDZiRnJvPcXNqzjtD-59" value="" style="endArrow=classic;html=1;rounded=0;exitX=0.249;exitY=0.947;exitDx=0;exitDy=0;exitPerimeter=0;entryX=0.191;entryY=0.001;entryDx=0;entryDy=0;entryPerimeter=0;" parent="1" source="sfHX7WNjNzunwl_Qtnw9-26" target="oULqDZiRnJvPcXNqzjtD-53" edge="1">
          <mxGeometry width="50" height="50" relative="1" as="geometry">
            <mxPoint x="1350" y="1500" as="sourcePoint" />
            <mxPoint x="1400" y="1450" as="targetPoint" />
          </mxGeometry>
        </mxCell>
        <mxCell id="oULqDZiRnJvPcXNqzjtD-73" value="&lt;span style=&quot;font-size: 20px;&quot;&gt;User Management &lt;br&gt;Confirmation&lt;/span&gt;" style="edgeLabel;html=1;align=center;verticalAlign=middle;resizable=0;points=[];" parent="oULqDZiRnJvPcXNqzjtD-59" connectable="0" vertex="1">
          <mxGeometry x="0.4925" y="-3" relative="1" as="geometry">
            <mxPoint x="-2" as="offset" />
          </mxGeometry>
        </mxCell>
        <mxCell id="oULqDZiRnJvPcXNqzjtD-60" value="" style="endArrow=classic;html=1;rounded=0;exitX=0.335;exitY=0.988;exitDx=0;exitDy=0;exitPerimeter=0;entryX=0.32;entryY=0.001;entryDx=0;entryDy=0;entryPerimeter=0;" parent="1" source="sfHX7WNjNzunwl_Qtnw9-26" target="oULqDZiRnJvPcXNqzjtD-53" edge="1">
          <mxGeometry width="50" height="50" relative="1" as="geometry">
            <mxPoint x="1410" y="1580" as="sourcePoint" />
            <mxPoint x="1460" y="1530" as="targetPoint" />
          </mxGeometry>
        </mxCell>
        <mxCell id="oULqDZiRnJvPcXNqzjtD-74" value="&lt;span style=&quot;font-size: 20px;&quot;&gt;Course &lt;br&gt;Management&lt;br&gt;Confirmation&lt;br&gt;&lt;/span&gt;" style="edgeLabel;html=1;align=center;verticalAlign=middle;resizable=0;points=[];" parent="oULqDZiRnJvPcXNqzjtD-60" connectable="0" vertex="1">
          <mxGeometry x="0.2314" relative="1" as="geometry">
            <mxPoint x="15" y="-63" as="offset" />
          </mxGeometry>
        </mxCell>
        <mxCell id="oULqDZiRnJvPcXNqzjtD-61" value="" style="endArrow=classic;html=1;rounded=0;exitX=0.414;exitY=0.998;exitDx=0;exitDy=0;exitPerimeter=0;entryX=0.411;entryY=0.004;entryDx=0;entryDy=0;entryPerimeter=0;" parent="1" source="sfHX7WNjNzunwl_Qtnw9-26" target="oULqDZiRnJvPcXNqzjtD-53" edge="1">
          <mxGeometry width="50" height="50" relative="1" as="geometry">
            <mxPoint x="1500" y="1550" as="sourcePoint" />
            <mxPoint x="1550" y="1500" as="targetPoint" />
          </mxGeometry>
        </mxCell>
        <mxCell id="oULqDZiRnJvPcXNqzjtD-75" value="&lt;span style=&quot;font-size: 20px;&quot;&gt;Plant Management&lt;br&gt;Confirmation&lt;br&gt;&lt;/span&gt;" style="edgeLabel;html=1;align=center;verticalAlign=middle;resizable=0;points=[];" parent="oULqDZiRnJvPcXNqzjtD-61" connectable="0" vertex="1">
          <mxGeometry x="0.3675" y="1" relative="1" as="geometry">
            <mxPoint x="47" y="-181" as="offset" />
          </mxGeometry>
        </mxCell>
        <mxCell id="oULqDZiRnJvPcXNqzjtD-62" value="" style="endArrow=classic;html=1;rounded=0;entryX=0.63;entryY=0.994;entryDx=0;entryDy=0;entryPerimeter=0;exitX=0.5;exitY=0;exitDx=0;exitDy=0;" parent="1" source="oULqDZiRnJvPcXNqzjtD-53" target="sfHX7WNjNzunwl_Qtnw9-26" edge="1">
          <mxGeometry width="50" height="50" relative="1" as="geometry">
            <mxPoint x="1590" y="1700" as="sourcePoint" />
            <mxPoint x="1640" y="1640" as="targetPoint" />
          </mxGeometry>
        </mxCell>
        <mxCell id="oULqDZiRnJvPcXNqzjtD-67" value="&lt;span style=&quot;font-size: 20px;&quot;&gt;report&amp;nbsp; outcome&lt;/span&gt;" style="edgeLabel;html=1;align=center;verticalAlign=middle;resizable=0;points=[];" parent="oULqDZiRnJvPcXNqzjtD-62" connectable="0" vertex="1">
          <mxGeometry x="-0.5595" y="-1" relative="1" as="geometry">
            <mxPoint as="offset" />
          </mxGeometry>
        </mxCell>
        <mxCell id="oULqDZiRnJvPcXNqzjtD-63" value="" style="endArrow=classic;html=1;rounded=0;entryX=0.725;entryY=0.968;entryDx=0;entryDy=0;entryPerimeter=0;exitX=0.634;exitY=0.004;exitDx=0;exitDy=0;exitPerimeter=0;" parent="1" source="oULqDZiRnJvPcXNqzjtD-53" target="sfHX7WNjNzunwl_Qtnw9-26" edge="1">
          <mxGeometry width="50" height="50" relative="1" as="geometry">
            <mxPoint x="1680" y="1710" as="sourcePoint" />
            <mxPoint x="1720" y="1670" as="targetPoint" />
          </mxGeometry>
        </mxCell>
        <mxCell id="oULqDZiRnJvPcXNqzjtD-68" value="&lt;span style=&quot;font-size: 20px;&quot;&gt;User Management&lt;br&gt;Request&lt;br&gt;&lt;/span&gt;" style="edgeLabel;html=1;align=center;verticalAlign=middle;resizable=0;points=[];" parent="oULqDZiRnJvPcXNqzjtD-63" connectable="0" vertex="1">
          <mxGeometry x="-0.067" y="-2" relative="1" as="geometry">
            <mxPoint y="-1" as="offset" />
          </mxGeometry>
        </mxCell>
        <mxCell id="oULqDZiRnJvPcXNqzjtD-64" value="" style="endArrow=classic;html=1;rounded=0;entryX=0.795;entryY=0.93;entryDx=0;entryDy=0;entryPerimeter=0;exitX=0.778;exitY=0.004;exitDx=0;exitDy=0;exitPerimeter=0;" parent="1" source="oULqDZiRnJvPcXNqzjtD-53" target="sfHX7WNjNzunwl_Qtnw9-26" edge="1">
          <mxGeometry width="50" height="50" relative="1" as="geometry">
            <mxPoint x="1880" y="1720" as="sourcePoint" />
            <mxPoint x="1970" y="1600" as="targetPoint" />
          </mxGeometry>
        </mxCell>
        <mxCell id="oULqDZiRnJvPcXNqzjtD-69" value="&lt;span style=&quot;font-size: 20px;&quot;&gt;Course Management &lt;br&gt;Request&lt;/span&gt;" style="edgeLabel;html=1;align=center;verticalAlign=middle;resizable=0;points=[];" parent="oULqDZiRnJvPcXNqzjtD-64" connectable="0" vertex="1">
          <mxGeometry x="-0.4679" y="3" relative="1" as="geometry">
            <mxPoint as="offset" />
          </mxGeometry>
        </mxCell>
        <mxCell id="AqQ0djGdyfIDZWBd2iRQ-21" style="edgeStyle=orthogonalEdgeStyle;rounded=0;orthogonalLoop=1;jettySize=auto;html=1;exitX=0;exitY=1;exitDx=0;exitDy=0;entryX=0;entryY=1;entryDx=0;entryDy=0;curved=1;" edge="1" parent="1" source="AqQ0djGdyfIDZWBd2iRQ-3" target="AqQ0djGdyfIDZWBd2iRQ-4">
          <mxGeometry relative="1" as="geometry" />
        </mxCell>
        <mxCell id="AqQ0djGdyfIDZWBd2iRQ-3" value="user" style="rounded=0;whiteSpace=wrap;html=1;" vertex="1" parent="1">
          <mxGeometry x="280" y="3630" width="120" height="60" as="geometry" />
        </mxCell>
        <mxCell id="AqQ0djGdyfIDZWBd2iRQ-13" style="edgeStyle=orthogonalEdgeStyle;rounded=0;orthogonalLoop=1;jettySize=auto;html=1;exitX=1;exitY=0.25;exitDx=0;exitDy=0;entryX=0.5;entryY=1;entryDx=0;entryDy=0;curved=1;" edge="1" parent="1" source="AqQ0djGdyfIDZWBd2iRQ-4" target="AqQ0djGdyfIDZWBd2iRQ-5">
          <mxGeometry relative="1" as="geometry" />
        </mxCell>
        <mxCell id="AqQ0djGdyfIDZWBd2iRQ-4" value="admin" style="rounded=0;whiteSpace=wrap;html=1;" vertex="1" parent="1">
          <mxGeometry x="900" y="4010" width="120" height="60" as="geometry" />
        </mxCell>
        <mxCell id="AqQ0djGdyfIDZWBd2iRQ-18" style="edgeStyle=orthogonalEdgeStyle;rounded=0;orthogonalLoop=1;jettySize=auto;html=1;exitX=0.25;exitY=1;exitDx=0;exitDy=0;entryX=1;entryY=0.5;entryDx=0;entryDy=0;curved=1;" edge="1" parent="1">
          <mxGeometry relative="1" as="geometry">
            <mxPoint x="1500" y="3680" as="sourcePoint" />
            <mxPoint x="1020" y="4030" as="targetPoint" />
            <Array as="points">
              <mxPoint x="1500" y="3940" />
              <mxPoint x="1020" y="3940" />
            </Array>
          </mxGeometry>
        </mxCell>
        <mxCell id="AqQ0djGdyfIDZWBd2iRQ-5" value="expert" style="rounded=0;whiteSpace=wrap;html=1;" vertex="1" parent="1">
          <mxGeometry x="1470" y="3630" width="120" height="60" as="geometry" />
        </mxCell>
        <mxCell id="AqQ0djGdyfIDZWBd2iRQ-12" style="edgeStyle=orthogonalEdgeStyle;rounded=0;orthogonalLoop=1;jettySize=auto;html=1;exitX=1;exitY=0.5;exitDx=0;exitDy=0;curved=1;entryX=0.75;entryY=1;entryDx=0;entryDy=0;" edge="1" parent="1" source="AqQ0djGdyfIDZWBd2iRQ-4" target="AqQ0djGdyfIDZWBd2iRQ-5">
          <mxGeometry relative="1" as="geometry">
            <mxPoint x="1737.57" y="3750" as="targetPoint" />
            <mxPoint x="1109.9964068711922" y="4061.715728752538" as="sourcePoint" />
          </mxGeometry>
        </mxCell>
        <mxCell id="AqQ0djGdyfIDZWBd2iRQ-6" value="sparkle botanical" style="ellipse;whiteSpace=wrap;html=1;" vertex="1" parent="1">
          <mxGeometry x="900" y="3620" width="120" height="80" as="geometry" />
        </mxCell>
        <mxCell id="AqQ0djGdyfIDZWBd2iRQ-14" style="edgeStyle=orthogonalEdgeStyle;rounded=0;orthogonalLoop=1;jettySize=auto;html=1;exitX=1;exitY=0.75;exitDx=0;exitDy=0;entryX=0.891;entryY=1.02;entryDx=0;entryDy=0;entryPerimeter=0;curved=1;" edge="1" parent="1" target="AqQ0djGdyfIDZWBd2iRQ-5">
          <mxGeometry relative="1" as="geometry">
            <mxPoint x="1040" y="4081.64" as="sourcePoint" />
            <mxPoint x="1591.52" y="3719.9999999999995" as="targetPoint" />
          </mxGeometry>
        </mxCell>
        <mxCell id="AqQ0djGdyfIDZWBd2iRQ-20" style="edgeStyle=orthogonalEdgeStyle;rounded=0;orthogonalLoop=1;jettySize=auto;html=1;exitX=0.25;exitY=1;exitDx=0;exitDy=0;entryX=1;entryY=0.5;entryDx=0;entryDy=0;curved=1;" edge="1" parent="1">
          <mxGeometry relative="1" as="geometry">
            <mxPoint x="1510" y="3690" as="sourcePoint" />
            <mxPoint x="1030" y="4040" as="targetPoint" />
            <Array as="points">
              <mxPoint x="1510" y="3950" />
              <mxPoint x="1030" y="3950" />
            </Array>
          </mxGeometry>
        </mxCell>
        <mxCell id="AqQ0djGdyfIDZWBd2iRQ-24" style="edgeStyle=orthogonalEdgeStyle;rounded=0;orthogonalLoop=1;jettySize=auto;html=1;exitX=1;exitY=1;exitDx=0;exitDy=0;entryX=0;entryY=0;entryDx=0;entryDy=0;curved=1;" edge="1" parent="1" source="AqQ0djGdyfIDZWBd2iRQ-3" target="AqQ0djGdyfIDZWBd2iRQ-4">
          <mxGeometry relative="1" as="geometry">
            <mxPoint x="290" y="3700" as="sourcePoint" />
            <mxPoint x="910" y="4080" as="targetPoint" />
          </mxGeometry>
        </mxCell>
        <mxCell id="AqQ0djGdyfIDZWBd2iRQ-25" style="edgeStyle=orthogonalEdgeStyle;rounded=0;orthogonalLoop=1;jettySize=auto;html=1;entryX=0;entryY=1;entryDx=0;entryDy=0;curved=1;exitX=0.5;exitY=0;exitDx=0;exitDy=0;" edge="1" parent="1" source="AqQ0djGdyfIDZWBd2iRQ-6">
          <mxGeometry relative="1" as="geometry">
            <mxPoint x="960" y="3610" as="sourcePoint" />
            <mxPoint x="1540" y="3630" as="targetPoint" />
          </mxGeometry>
        </mxCell>
      </root>
    </mxGraphModel>
  </diagram>
</mxfile>
